<?xml version="1.0" encoding="iso-8859-1"?>
<!-- Generator: Adobe Illustrator 18.1.1, SVG Export Plug-In . SVG Version: 6.00 Build 0)  -->
<svg version="1.1" id="Capa_1" xmlns="http://www.w3.org/2000/svg" xmlns:xlink="http://www.w3.org/1999/xlink" x="0px" y="0px"
	 viewBox="0 0 21.41 21.41" style="enable-background:new 0 0 21.41 21.41;" xml:space="preserve">
<g>
	<g>
		<g>
			<path style="fill:#010002;" d="M3.314,4.396h0.06h1.649V3.374C5.024,1.518,6.928,0,9.255,0h2.821c2.326,0,4.23,1.518,4.23,3.374
				v1.022h1.73h0.068l1.504,2.368h-1.574V21.41H3.373V6.763H1.801L3.314,4.396L3.314,4.396z M6.192,4.396h8.948V4.055
				c0-1.39-1.51-2.527-3.354-2.527H9.548c-1.845,0-3.355,1.138-3.355,2.527L6.192,4.396L6.192,4.396z M4.98,5.85v14.105h11.452V5.85
				H4.98z"/>
			<rect x="6.679" y="8.054" style="fill:#010002;" width="1.62" height="9.665"/>
			<rect x="9.908" y="8.054" style="fill:#010002;" width="1.621" height="9.665"/>
			<rect x="13.542" y="8.054" style="fill:#010002;" width="1.62" height="9.665"/>
		</g>
	</g>
</g>
<g>
</g>
<g>
</g>
<g>
</g>
<g>
</g>
<g>
</g>
<g>
</g>
<g>
</g>
<g>
</g>
<g>
</g>
<g>
</g>
<g>
</g>
<g>
</g>
<g>
</g>
<g>
</g>
<g>
</g>
</svg>
